<svg width="25" height="25" viewBox="0 0 25 25" fill="none" xmlns="http://www.w3.org/2000/svg">
<path d="M10.9752 20.439C12.8469 20.439 14.6766 19.884 16.2329 18.8441C17.7891 17.8043 19.0021 16.3263 19.7184 14.5971C20.4346 12.8678 20.622 10.965 20.2569 9.12929C19.8917 7.29355 18.9904 5.60732 17.6669 4.28382C16.3434 2.96033 14.6572 2.05902 12.8215 1.69387C10.9857 1.32872 9.08292 1.51612 7.35369 2.23239C5.62447 2.94866 4.14647 4.16162 3.10661 5.71789C2.06674 7.27415 1.51172 9.10382 1.51172 10.9755C1.51172 13.4854 2.50876 15.8925 4.28351 17.6672C6.05826 19.442 8.46534 20.439 10.9752 20.439V20.439Z" stroke="#F56E1E" stroke-width="3" stroke-linecap="round" stroke-linejoin="round"/>
<path d="M22.5434 22.5435L17.7764 17.7765" stroke="#F56E1E" stroke-width="3" stroke-linecap="round" stroke-linejoin="round"/>
</svg>
