<svg width="30" height="30" viewBox="0 0 30 30" fill="none" xmlns="http://www.w3.org/2000/svg">
<circle cx="15" cy="15" r="15" fill="#F1F1F1"/>
<path d="M9.75707 19.5822L9.30518 10.5454H20.6904L20.2473 19.5822C20.2146 20.2343 19.9325 20.8489 19.4593 21.2989C18.9862 21.749 18.3582 21.9999 17.7052 22H12.2992C11.6462 21.9999 11.0182 21.749 10.5451 21.2989C10.0719 20.8489 9.7898 20.2343 9.75707 19.5822V19.5822Z" stroke="#6E7191" stroke-width="2"/>
<path d="M12.4543 10.5454H17.5448V9.27224C17.5448 8.93482 17.4107 8.61122 17.1721 8.37263C16.9335 8.13404 16.6098 8 16.2724 8H13.7267C13.3892 8 13.0656 8.13404 12.827 8.37263C12.5883 8.61122 12.4543 8.93482 12.4543 9.27224V10.5454Z" stroke="#6E7191" stroke-width="2"/>
<path d="M8 10.5454H22" stroke="#6E7191" stroke-width="2" stroke-linecap="round"/>
<path d="M16.9097 14.363V17.5445" stroke="#6E7191" stroke-width="2" stroke-linecap="round"/>
<path d="M13.0905 14.363V17.5445" stroke="#6E7191" stroke-width="2" stroke-linecap="round"/>
</svg>
